<svg xmlns="http://www.w3.org/2000/svg" enable-background="new 0 0 52 52" viewBox="0 0 52 52" id="brain"><path fill="none" stroke="#000" stroke-linecap="round" stroke-linejoin="round" stroke-width="2" d="M26 5.5c-.3-2.1-2.2-3.6-4.3-3.5-2.2-.1-4.1 1.6-4.2 3.8 0 .1 0 .3 0 .4-1.4-.8-3.1-.7-4.5.2-1.5.9-2.2 2.6-1.9 4.3C10 10.6 8.9 10.9 8 11.5c-1.9 1.1-2.5 3.6-1.4 5.5l0 0c-1.2.5-2.1 1.4-2.5 2.6-.6 1.4-.3 3 .6 4.2-1.3.6-2.3 1.9-2.4 3.4-.3 1.8.7 3.6 2.3 4.4-1.4 2-.9 4.8 1.1 6.2.6.4 1.4.7 2.1.8-.3 1.1-.2 2.2.3 3.2.8 1.7 2.6 2.7 4.4 2.4 0 .6.2 1.2.4 1.8.9 2.1 3.3 3 5.3 2.1 0 0 0 0 0 0 .1-.1.3-.2.4-.3.9 1.9 3.2 2.8 5.2 1.9 1-.5 1.7-1.5 1.9-2.6H26V5.5L26 5.5zM17.6 6.2c2.2 1.4 3 4.2 1.8 6.5"></path><path fill="none" stroke="#000" stroke-linecap="round" stroke-linejoin="round" stroke-width="2" d="M19.2 18.6c-1.3 1.3-3.4 1.3-4.7 0-1.3-1.3-1.3-3.4 0-4.7l0 0M15 26.8c1.6-.9 3.6-.4 4.6 1.2.9 1.6.4 3.6-1.2 4.6 0 0-.1 0-.1 0M4.7 23.8c0 0 4.6 3 6-1.5M4.5 31.6c0 0 4.8-4.2 7.1 1.5M12.6 44.1c2.2-.1 3.9-1.9 3.9-4.1 0-.3 0-.5-.1-.8M26 36.9c0 0-2.2-2.7-5 0M22.6 14.6c0 0 .9 3 3.4 2.1M26 5.5c.3-2.1 2.1-3.5 4.2-3.5 2.2-.1 4.1 1.6 4.2 3.8 0 .1 0 .3 0 .4 1.4-.8 3.1-.7 4.5.2 1.5.9 2.2 2.6 1.9 4.3 1.1-.2 2.2.1 3.1.7 1.9 1.1 2.6 3.6 1.5 5.5l0 0c1.2.5 2.1 1.4 2.5 2.6.6 1.4.3 3-.6 4.2 1.3.6 2.3 1.9 2.4 3.4.3 1.8-.7 3.6-2.3 4.4 1.4 2 .9 4.8-1.1 6.2-.6.4-1.4.7-2.1.8.3 1.1.2 2.2-.3 3.2-.8 1.7-2.6 2.7-4.5 2.4 0 .6-.2 1.2-.4 1.8-.9 2.1-3.3 3-5.3 2.1 0 0 0 0 0 0-.1-.1-.3-.2-.4-.3-.9 1.9-3.2 2.7-5.2 1.9-1-.5-1.7-1.5-2-2.6H26L26 5.5 26 5.5zM34.4 6.2c-2.2 1.4-3 4.2-1.8 6.5"></path><path fill="none" stroke="#000" stroke-linecap="round" stroke-linejoin="round" stroke-width="2" d="M32.8 18.6c1.3 1.3 3.4 1.3 4.7 0 1.3-1.3 1.3-3.4 0-4.7M37 26.8c-1.6-.9-3.6-.3-4.5 1.3-.9 1.6-.3 3.6 1.2 4.5M47.3 23.8c0 0-4.6 3-6-1.5M47.5 31.6c0 0-4.8-4.2-7.1 1.5M39.4 44.1c-2.2-.1-3.9-1.9-3.9-4.1 0-.3 0-.5.1-.8M26 36.9c0 0 2.2-2.7 5 0M29.4 14.6c0 0-.9 3-3.4 2.1"></path></svg>