<svg width="608" height="600" viewBox="0 0 608 600" fill="none" xmlns="http://www.w3.org/2000/svg">
<g filter="url(#filter0_d_272_393)">
<path d="M290.216 597.882C281.016 597.255 269.909 596.148 262.974 595.166C177.867 583.118 102.013 535.274 54.6106 463.745C11.3425 398.456 -3.85611 318.61 12.3023 241.48C29.0839 161.374 79.3209 91.501 151.002 48.5678C209.825 13.3357 280.514 -0.768752 349.088 9.04402C413.302 18.2328 472.326 47.4489 518.159 92.7308C566.871 140.858 597.14 203.195 604.391 270.321C606.822 292.823 606.48 319.713 603.491 341.236C601.383 356.411 598.637 369.512 594.706 383.144C562.728 494.058 468.036 576.786 352.551 594.704C337.862 596.983 327.582 597.745 309.379 597.907C300.236 597.988 291.613 597.977 290.216 597.882ZM304.309 585.746C304.177 585.182 302.52 577.237 300.627 568.09C298.733 558.943 291.865 526.238 285.366 495.413C278.866 464.588 270.955 427.01 267.785 411.906C264.615 396.803 261.824 383.935 261.584 383.311L261.147 382.177L257.789 384.291C253.312 387.111 207.74 416.542 177.552 436.11C164.219 444.752 153.244 451.757 153.162 451.676C152.945 451.462 152.647 451.915 187.947 398.815C205.774 372 221.032 348.882 221.854 347.442C222.977 345.477 223.195 344.768 222.73 344.601C221.928 344.312 207.003 341.228 145.461 328.633C90.4058 317.366 84.4571 316.148 50.1116 309.105C18.3893 302.6 17.328 302.369 17.328 301.963C17.328 301.491 19.8396 300.95 62.5786 292.22C152.098 273.935 219.937 260.006 221.535 259.581L223.269 259.121L222.564 257.776C221.696 256.119 216.996 248.79 211.177 240.02C208.766 236.386 206.643 233.157 206.459 232.843C206.21 232.418 206.745 232.275 208.577 232.277L211.028 232.281L219.001 244.28C223.386 250.88 227.438 256.7 228.005 257.215L229.036 258.151L239.816 255.926C245.745 254.702 251.439 253.477 252.469 253.203L254.341 252.706L249.772 248.072C247.258 245.523 240.159 238.409 233.994 232.263L222.787 221.088L222.91 209.16L223.033 197.232L239.887 208.168C254.532 217.671 260.496 221.338 261.305 221.338C261.608 221.338 262.134 218.926 270.546 178.962C274.74 159.039 281.411 127.36 285.371 108.564C289.33 89.7685 295.167 61.9851 298.342 46.8232C301.516 31.6614 304.236 18.7703 304.386 18.1764L304.658 17.0965L297.553 17.3974C273.706 18.4073 255.685 20.9167 234.691 26.1509C132.779 51.5595 52.218 131.09 26.3577 231.818C21.2753 251.615 18.8071 268.354 17.7244 290.37C17.4286 296.384 17.0181 301.371 16.8122 301.452C16.6063 301.532 16.6265 301.942 16.8571 302.363C17.0877 302.784 17.5014 308.049 17.7765 314.063C18.3493 326.587 19.1644 335.021 20.8373 345.731C29.0816 398.516 52.1072 447.631 87.6986 488.351C93.5754 495.074 106.483 507.993 113.676 514.351C159.646 554.986 217.408 579.93 278.673 585.603C288.291 586.494 289.898 586.584 297.959 586.687L304.548 586.771L304.309 585.746ZM114.755 228.059L114.755 225.895H124.221H133.687V171.632V117.368L124.221 117.523L114.755 117.677L114.755 115.513L114.755 113.349H165.035H215.315L215.617 118.019C215.783 120.588 216.107 125.458 216.338 128.841C216.568 132.224 216.894 137.106 217.061 139.69L217.365 144.387L215.124 144.246L212.882 144.105L212.567 141.914C211.7 135.896 208.174 128.486 204.474 124.909C200.893 121.447 195.294 119.058 188.634 118.152C187.491 117.996 179.335 117.747 170.51 117.599L154.465 117.328V142.678V168.027H161.999C173.228 168.027 176.648 167.172 179.98 163.532C183.057 160.171 185.374 153.66 185.393 148.32L185.401 146.156H187.71H190.019V170.761V195.366H188.25C186.029 195.366 185.772 194.865 184.768 188.584C183.787 182.443 182.241 179.038 179.268 176.472C175.576 173.284 172.488 172.496 162.661 172.234L154.465 172.015V199V225.986L171.895 225.765C182.702 225.628 190.116 225.346 191.404 225.023C196.521 223.739 199.811 222.544 202.32 221.056C205.745 219.024 206.737 218.11 209.179 214.731C212.611 209.983 214.865 203.596 216.077 195.191L216.611 191.493L218.82 191.353L221.028 191.212L220.773 193.631C220.632 194.961 220.402 201.893 220.261 209.036C220.037 220.468 219.649 229.558 219.373 229.872C219.323 229.93 195.763 230.032 167.018 230.1L114.755 230.223L114.755 228.059ZM333.62 585.647C370.194 581.9 402.029 572.97 433.587 557.607C511.948 519.456 569.046 447.753 587.784 363.966C592.886 341.152 594.782 321.839 594.361 296.977C594.036 277.789 592.732 264.948 589.362 247.766C575.764 178.435 536.299 116.525 478.375 73.6565C437.317 43.27 387.672 24.1583 335.929 18.8194C328.373 18.0398 305.605 16.905 305.216 17.2886C305.076 17.4263 305.398 19.4633 305.932 21.8151C306.969 26.3892 308.809 35.0983 322.77 101.502C349.672 229.453 347.932 221.338 348.472 221.338C349.343 221.338 359.422 214.891 421.12 174.866C445.005 159.371 454.989 152.988 455.852 152.661C456.789 152.306 460.99 145.863 422.833 203.306C383.207 262.961 385.965 258.697 386.704 259.148C387.026 259.344 388.875 259.824 390.814 260.215C392.753 260.605 417.922 265.767 446.746 271.684C475.57 277.602 518.652 286.432 542.483 291.308C591.308 301.298 592.289 301.506 592.784 301.959C592.981 302.139 589.345 303.051 584.704 303.984C576.733 305.587 540.255 313.054 435.203 334.585C410.188 339.712 388.946 344.12 387.999 344.382L386.276 344.858L389.193 349.509C392.019 354.014 393.352 356.079 398.888 364.527L401.501 368.514H399.028H396.556L389.122 357.35C382.601 347.557 381.542 346.187 380.499 346.187C379.845 346.187 374.021 347.212 367.558 348.465C361.094 349.718 355.697 350.743 355.564 350.743C354.491 350.743 358.051 354.486 377.621 373.927C389.885 386.112 400.144 396.594 400.419 397.22C401.473 399.622 402.038 401.093 401.906 401.093C401.831 401.093 402.098 401.708 402.5 402.46C403.345 404.042 403.727 404.936 405.42 409.295C406.102 411.049 406.874 412.741 407.135 413.054C407.397 413.367 407.47 413.624 407.298 413.624C407.125 413.624 407.282 414.187 407.647 414.877C408.397 416.295 408.939 417.56 409.985 420.328L410.71 422.248L404.833 418.467C401.601 416.387 391.268 409.694 381.872 403.593C359.071 388.79 349.319 382.639 348.648 382.639C348.342 382.639 347.842 383.708 347.537 385.014C346.983 387.384 338.402 428.064 319.543 517.74C306.23 581.038 305.488 584.546 305.143 585.819L304.846 586.917L315.885 586.625C321.957 586.464 329.938 586.024 333.62 585.647ZM441.256 488.237C440.794 487.172 440.253 485.787 440.054 485.161C439.737 484.158 436.114 475.33 422.855 443.241C419.066 434.071 413.083 419.556 408.207 407.7C406.506 403.565 404.628 399.054 404.035 397.676C402.319 393.69 398.662 384.839 398.011 383.095C397.683 382.218 396.99 380.526 396.471 379.336L395.526 377.171H389.045H382.564V375.121V373.07H443.052H503.54V375.108V377.146L497.302 377.272L491.063 377.399L484.335 393.803C480.635 402.825 477.5 410.552 477.368 410.974C477.175 411.595 495.71 457.035 497.763 460.975C498.336 462.073 498.34 462.071 498.924 460.291C499.672 458.013 526.187 387.384 528.286 382.079C529.151 379.892 529.859 377.893 529.859 377.637C529.859 377.337 526.898 377.171 521.548 377.171H513.237V375.121V373.07H530.09H546.944V375.121V377.171H540.931C535.131 377.171 534.904 377.208 534.489 378.197C534.252 378.76 526.996 397.881 518.364 420.686C509.732 443.492 500.237 468.456 497.264 476.162L491.858 490.173L490.427 490.165C489.017 490.157 488.958 490.061 486.519 483.9C485.157 480.458 483.67 476.823 483.214 475.82C482.356 473.929 478.96 465.815 471.679 448.253C469.341 442.614 467.279 437.842 467.096 437.648C466.912 437.454 464.152 443.707 460.96 451.545C457.769 459.383 452.905 471.281 450.151 477.984L445.144 490.173H443.62C442.267 490.173 442.002 489.956 441.256 488.237ZM452.466 461.282C452.62 460.675 455.345 453.763 458.52 445.923C461.695 438.083 464.292 431.431 464.292 431.14C464.292 430.849 459.321 418.639 453.245 404.005L442.199 377.399L429.612 377.278C422.689 377.211 416.873 377.314 416.686 377.506C416.5 377.698 417.48 380.52 418.863 383.778C420.247 387.036 422.293 391.957 423.41 394.714C426.147 401.473 441.376 438.364 447.768 453.721C449.28 457.355 450.728 460.892 450.986 461.58C451.518 463.004 452.055 462.896 452.466 461.282ZM475.593 404.169C475.876 403.053 482.819 385.892 484.394 382.411C485.814 379.275 486.362 377.686 486.109 377.436C485.961 377.291 480.784 377.171 474.605 377.171C465.548 377.171 463.369 377.289 463.369 377.779C463.369 378.113 464.785 381.753 466.516 385.867C468.247 389.981 470.781 396.064 472.148 399.384C473.515 402.705 474.778 405.422 474.954 405.422C475.13 405.422 475.417 404.858 475.593 404.169ZM306.851 540.295C308.168 534.159 320.326 476.425 338.51 389.96L346.121 353.766L343.454 351.106L340.787 348.447L344.333 345.255C355.33 335.353 362.178 321.868 363.701 307.115L364.23 301.989L454.317 301.94C503.865 301.914 546.274 301.76 548.56 301.599L552.716 301.305L539.094 298.477C526.21 295.803 497.39 289.885 402.171 270.362C379.559 265.726 360.218 261.8 359.19 261.638C357.408 261.357 357.197 261.458 354.575 263.853L351.828 266.363L348.715 263.011C338.366 251.868 323.775 244.745 309.386 243.813L304.992 243.528V185.576C304.992 128.198 304.55 57.5874 304.193 57.9395C303.899 58.2299 303.038 62.1334 298.351 84.4146C295.926 95.9426 287.182 137.516 278.92 176.799C270.657 216.083 263.897 248.695 263.897 249.271C263.897 249.887 264.877 251.402 266.276 252.952L268.654 255.585L264.897 258.997C257.776 265.463 251.758 274.639 248.702 283.688C247.197 288.146 245.889 294.536 245.889 297.435C245.889 298.373 245.759 299.782 245.601 300.565L245.312 301.989L150.367 302.025C94.6252 302.046 55.8982 302.227 56.5759 302.464C57.2108 302.686 76.8463 306.781 100.21 311.563C123.574 316.345 166.17 325.085 194.867 330.983C223.564 336.882 248.083 341.874 249.352 342.077C252.091 342.515 252.757 342.241 255.625 339.505L257.741 337.485L260.863 340.927C266.569 347.219 273.555 352.055 282.329 355.788C287.681 358.065 292.712 359.307 299.374 359.998L304.761 360.556L304.914 454.184C304.997 505.68 305.148 547.608 305.249 547.357C305.35 547.107 306.07 543.929 306.851 540.295ZM296.45 350.435C288.5 348.691 282.274 346.185 276.769 342.513C273.01 340.005 266.022 333.095 263.666 329.556C256.992 319.529 254.199 308.129 255.48 296.144C257.635 275.994 273.56 258.647 294.137 254.036C299.456 252.844 309.575 252.751 314.562 253.849C333.609 258.042 347.741 271.135 352.805 289.279C354.286 294.586 354.806 303.566 353.966 309.327C352.461 319.653 347.35 329.405 339.504 336.918C332.09 344.018 323.998 348.204 314.111 350.055C310.678 350.697 298.81 350.953 296.45 350.435ZM314.335 340.751C319.027 339.566 323.579 337.651 326.948 335.444C335.866 329.603 342.813 319.296 344.58 309.286C345.54 303.847 345.16 295.118 343.776 290.825C341.495 283.748 337.517 277.52 332.141 272.607C316.624 258.426 292.392 258.606 276.903 273.018C259.496 289.214 260.344 317.161 278.705 332.404C288.7 340.701 302.099 343.84 314.335 340.751ZM297.142 331.811C286.555 328.898 278.689 321.394 274.953 310.646C273.457 306.343 273.452 297.579 274.943 293.331C277.948 284.767 283.537 278.158 290.678 274.724C295.901 272.211 299.144 271.46 304.761 271.46C310.378 271.46 313.621 272.211 318.844 274.724C321.97 276.227 323.521 277.363 326.463 280.301C330.603 284.436 332.658 287.582 334.427 292.495C335.482 295.425 335.633 296.569 335.651 301.761C335.67 307.058 335.538 308.074 334.402 311.371C332.812 315.985 329.414 321.141 325.772 324.469C322.336 327.608 319.762 329.127 314.939 330.86C311.73 332.014 310.442 332.217 305.454 332.352C301.263 332.466 298.986 332.318 297.142 331.811ZM174.935 432.837C181.909 428.407 231.969 396.039 247.275 386.064C253.496 382.009 258.98 378.251 259.46 377.711C260.32 376.745 260.297 376.562 257.882 364.895C256.535 358.385 255.269 352.797 255.069 352.478C254.638 351.791 255.561 350.917 215.094 390.327C187.011 417.678 168.279 436.406 169.006 436.406C169.177 436.406 171.845 434.8 174.935 432.837ZM397.467 210.516C420.542 187.774 439.636 168.782 439.898 168.314C440.492 167.25 445.007 164.411 405.19 190.136C364.711 216.288 352.845 224.058 350.767 225.775L349.213 227.059L351.603 238.438C354.562 252.523 354.396 251.867 355.005 251.867C355.283 251.867 374.391 233.259 397.467 210.516Z" fill="#D9D9D9" fill-opacity="0.14" shape-rendering="crispEdges"/>
</g>
<defs>
<filter id="filter0_d_272_393" x="0" y="0" width="608" height="599.961" filterUnits="userSpaceOnUse" color-interpolation-filters="sRGB">
<feFlood flood-opacity="0" result="BackgroundImageFix"/>
<feColorMatrix in="SourceAlpha" type="matrix" values="0 0 0 0 0 0 0 0 0 0 0 0 0 0 0 0 0 0 127 0" result="hardAlpha"/>
<feOffset dx="-2" dy="-2"/>
<feGaussianBlur stdDeviation="2"/>
<feComposite in2="hardAlpha" operator="out"/>
<feColorMatrix type="matrix" values="0 0 0 0 0 0 0 0 0 0 0 0 0 0 0 0 0 0 0.25 0"/>
<feBlend mode="normal" in2="BackgroundImageFix" result="effect1_dropShadow_272_393"/>
<feBlend mode="normal" in="SourceGraphic" in2="effect1_dropShadow_272_393" result="shape"/>
</filter>
</defs>
</svg>
